<svg width="33" height="33" viewBox="0 0 33 33" fill="none" xmlns="http://www.w3.org/2000/svg">
<path opacity="0.4" d="M23.2245 0H28.8113C31.125 0 32.9999 1.89066 32.9999 4.22394V9.85797C32.9999 12.1913 31.125 14.0819 28.8113 14.0819H23.2245C20.9107 14.0819 19.0359 12.1913 19.0359 9.85797V4.22394C19.0359 1.89066 20.9107 0 23.2245 0Z" fill="#B81111"/>
<path d="M9.77541 18.9181C12.0892 18.9181 13.964 20.8088 13.964 23.142V28.7761C13.964 31.1078 12.0892 33 9.77541 33H4.18857C1.87482 33 0 31.1078 0 28.7761V23.142C0 20.8088 1.87482 18.9181 4.18857 18.9181H9.77541ZM28.8114 18.9181C31.1252 18.9181 33 20.8088 33 23.142V28.7761C33 31.1078 31.1252 33 28.8114 33H23.2246C20.9108 33 19.036 31.1078 19.036 28.7761V23.142C19.036 20.8088 20.9108 18.9181 23.2246 18.9181H28.8114ZM9.77541 0C12.0892 0 13.964 1.89066 13.964 4.22394V9.85797C13.964 12.1912 12.0892 14.0819 9.77541 14.0819H4.18857C1.87482 14.0819 0 12.1912 0 9.85797V4.22394C0 1.89066 1.87482 0 4.18857 0H9.77541Z" fill="#B81111"/>
</svg>
