<?xml version="1.0" encoding="UTF-8"?>
<svg version="1.1" viewBox="0 0 1600 1066" width="1280" height="1280" xmlns="http://www.w3.org/2000/svg">
<path transform="translate(0)" d="m0 0h1600v1066h-1600z" fill="#10373E"/>
<path transform="translate(1455)" d="m0 0h145v709h-248l-4-10-8-28-5-20-5-28-8-72-9-61-4-21 6-14 1-4v-16l-5-14-12-19-8-11-7-10-4-10v-34l-3-17-4-9-6-9-8-7-11-5-5-1h-17l-15 4-10 5-10 9-5 6-2 14v11l1-6h1l2 13v3l3 4 6-6 6 1 4 5-1 7-5 6-2 1 3 11v16l-5 17-6 12-8 3-14 5-9 6-5 6-8 28-3 19-4 48-1 5h-205l-4-40-1-5v-7l8-9 4-10 1-4v-14l-2-11-6-12-8-9-8-6-2-1v-2l-4-2-8-7-7-8-5-15-3-14-2-6-2-12-5-18-6-11-9-8-6-2-11-1-9-3-5-1h-8l-14 3-11 6-7 7-6 10h2l2-5 6-8 8-6 9-4 4 1-12 6-8 8-8 13-6 18-8 29-8 16-6 7v-3l4-8-1 1-8 13-9 10-14 11-10 8-9 10-7 15-111 1-5 3-3 5-1 71h-110l-1-1v-313h76l1 3 12 5 9 1 1 1h16v-2l10-4h2v-2l3-1v-2h3l3-9 1-6-1-11-4-10-8-9-10-5-7-2v-48h217l1 47 2 1v-48h217v47h2v-47l184-1 26-6h4v54l-13 3-9 6-6 7-4 11v13l4 11 8 7 11 4 7 1h11l13-4 8-7 4-11v-14l-4-11-8-9-10-5-9-2v-55l15-4 39-9 156-36h4z" fill="#F2E7EC"/>
<path transform="translate(0)" d="m0 0h147v71l9 2 34 10 88 27 52 16 35 1v47h2v-47h215v48l-12 2-9 5-5 4-6 10-2 7-1 10h-83v328l-1 1h-100l5-4 7-8 5-11 1-4v-14l-4-11-6-9-5-4v-2l8-7 9-12 7-14 2-7v-10l-2-2-9 1-10 5-4 3-2-17-4-14-7-13-7-7-8-1-5 4-4 9-2 10v26l1 10-5-5-7-6-8-4h-10l-1 2v8l4 11 7 13 9 11 4 4-1 3-8 7-5 7-3 9-1 5 1 13 4 10 4 6 9 8v1h-39v44h18v24l-1 1-1 30h687v101h-685v-53h-300v25h-1z" fill="#F2E7EC"/>
<path transform="translate(147)" d="m0 0h1308v70l-64 15-139 32-11 2v55l9 1 10 5 7 7 5 10 1 4v14l-4 11-9 8-13 4h-11l-11-2-10-5-7-8-3-9v-13l4-11 9-10 10-5 10-1v-54l-30 7h-184v47h-2v-47h-217v48l-3-1v-47h-217v48l9 2 8 4 7 7 5 10 1 3 1 12-3 10-2 4h-3l1 3h-4v2l-9 4h-3v2l-18 1-3-2-8-1-10-5v-3h-76l1 313 110 1v-71l4-6 5-3h111l1-5 6-11 9-10 11-9 9-7 10-9 9-14 3-6 1 3-5 10 6-8 7-14 10-36 5-13 8-12 8-8 8-5-12 6-7 6-6 10h-2l2-5 6-8 8-7 11-5 11-2h8l12 3 2 1 15 2 8 6 6 7 4 8 5 18 3 17 1 1 3 14 5 15 11 12 7 5v2l5 2 11 10 7 11 3 8 1 8v14l-3 9-4 8-6 6v7l3 24 1 21h204l-1 12-3 12-5 8-8 7-14 6-4 1h-12l-1 7-1 28-1 9-10-1-17-5-8-6-7-8-54-1v-9l4-6 4-3h17l-3-5h-15l-6 4-5 8-1 2-1 9h-686l1-25h-18v-44l38-1-8-7-4-5-4-8-2-10v-7l3-11 5-9 8-8 2-1-2-4-9-10-8-14-4-9-1-4v-8l2-3h10l11 6 7 7 1 2-1-9v-26l3-13 5-8 4-3 8 1 8 8 8 16 3 11 2 16 8-6 8-3h6l3 3v10l-4 12-9 15-12 13h-2l5 5 6 8 4 9 1 4v14l-4 11-6 9-7 6h98l1-328h83v-10l4-11 7-9 10-6 7-2h7v-48h-215v47h-2v-47h-35l-45-14-17-5-58-18-40-12-23-7z" fill="#7D503C"/>
<path transform="translate(992,641)" d="m0 0h85v142h5v-142h68l-1 19-7 78-1 8v13l5 2 5 3 7 2h8l3-1 8 2 1 1 11 108 6 57v4h-81v75l-4 4h-11l-4-6-6-4-9-1-8 3-5 6-1 2h-75l-6-5-10-2-9 3-4 4h-11l-4-3v-76h-645l-1-1v-27h-301v-195l1-25h300l1 24v22l-1 7h685l1 40 4 1v-141z" fill="#A9755A"/>
<path transform="translate(585,127)" d="m0 0h217l1 47 2 1v-48h217v47h7l10 3 9 6 6 8 4 10v12h82l1 314-2 15h-205l-4-40-1-5v-7l8-9 4-10 1-4v-14l-2-11-6-12-8-9-8-6-2-1v-2l-4-2-8-7-7-8-5-15-3-14-2-6-2-12-5-18-6-11-9-8-6-2-11-1-9-3-5-1h-8l-14 3-11 6-7 7-6 10h2l2-5 6-8 8-6 9-4 4 1-12 6-8 8-8 13-6 18-8 29-8 16-6 7v-3l4-8-1 1-8 13-9 10-14 11-10 8-9 10-7 15-111 1-5 3-3 5-1 71h-110l-1-1v-313h76l1 3 12 5 9 1 1 1h16v-2l10-4h2v-2l3-1v-2h3l3-9 1-6-1-11-4-10-8-9-10-5-7-2z" fill="#DDBBA7"/>
<path transform="translate(826,303)" d="m0 0h8l12 3 2 1 15 2 8 6 6 7 4 8 5 18 3 17 1 1 3 14 5 15 11 12 7 5v2l5 2 11 10 7 11 3 8 1 8v14l-3 9-4 8-6 6v7l3 24 1 21h204l-1 12-3 12-5 8-8 7-14 6-4 1h-12l-1 7-1 28-1 9-10-1-17-5-8-6-7-8-54-1v-9l4-6 4-3h17l-3-5h-15l-6 4-5 8-1 2-1 9h-686l1-25h-18v-44l38-1-8-7-4-5-4-8-2-10v-7l3-11 5-9 8-8 2-1-2-4-9-10-8-14-4-9-1-4v-8l2-3h10l11 6 7 7 1 2-1-9v-26l3-13 5-8 4-3 8 1 8 8 8 16 3 11 2 16 8-6 8-3h6l3 3v10l-4 12-9 15-12 13h-2l5 5 6 8 4 9 1 4v14l-4 11-6 9-7 6 224 1v-71l4-6 5-3h111l1-5 6-11 9-10 11-9 9-7 10-9 9-14 3-6 1 3-5 10 6-8 7-14 10-36 5-13 8-12 8-8 8-5-12 6-7 6-6 10h-2l2-5 6-8 8-7 11-5z" fill="#733D1F"/>
<path transform="translate(1226,288)" d="m0 0h17l10 3 10 6 7 7 6 10 3 9 2 14v34l4 10 8 11 7 10 13 21 4 12v16l-5 14-2 6 5 25 8 55 8 72 5 28 9 35 7 22v6l-7 6-8 5-18 1-19 4-19 7-11 6-10 9-8 7-12 7-18 6-5 1h-11l-37-7-3 1h-8l-8-3-9-5-1-2v-11l6-63 3-35 1-7h-68v142h-5v-142l-85 1v137l-1 4-5-1v-141h-687v-30h687v-9l5-9 6-5 2-1h15l3 4v2l-17 1-5 4-2 4-1 9h54l9 10 6 4 17 5 10 2 1-37 1-8h13l14-5 9-6 5-6 4-11 4-22 4-48 3-19 8-28 8-9 14-7 14-4 6-12 5-17v-16l-3-11 6-5 2-4-1-7-4-3-5 1-5 5-4-5-1-5 1-1-1-4-2 2-1-2v-11l2-14 11-12 10-7 15-5z" fill="#019EA9"/>
<path transform="translate(416,285)" d="m0 0 27 1 19 2 1 1v253h-100l5-4 7-8 5-11 1-4v-14l-4-11-6-9-5-4v-2l8-7 9-12 7-14 2-7v-10l-2-2-9 1-10 5-4 3-2-17-4-14-7-13-7-7-8-1-5 4-4 9-2 10v26l1 10-5-5-7-6-8-4h-10l-1 2v8l4 11 7 13 9 11 4 4-1 3-8 7-5 7-3 9-1 5 1 13 4 10 4 6 9 8v1h-39v44h18v24l-1 1-1 31h2l-1 7h-193l-2-9-2-21v-35l3-31 5-26 5-19 10-28 14-29 11-19 14-20 8-10 11-13 14-15h2v-2h2v-2l11-9 9-8 18-13 19-12 12-7 19-9 20-8 18-6 28-7 27-4 10-1z" fill="#D7DEE4"/>
<path transform="translate(299,641)" d="m0 0h687v101h-685v-53h-300v25h-1v-64h301v-8z" fill="#EBAC89"/>
<path transform="translate(992,641)" d="m0 0h85v142h5v-142h68l-1 19-7 78-1 8v13l5 2 5 3 7 2h8l3-1 8 2 1 1 11 108 6 57v4h-81v75l-4 4h-11l-4-6-6-4-9-1-8 3-5 6-1 2h-75l-6-5-10-2-9 3-4 4h-11l-4-3v-226l4-4 36-1 4 1v-141z" fill="#D44124"/>
<path transform="translate(1,689)" d="m0 0h300l1 24v22l-1 7h685v1h-684v165l-1 1h-301v-195z" fill="#CC8B68"/>
<path transform="translate(1140,213)" d="m0 0h1l1 66 1-1 25-3h43l35 4 26 6 20 6 21 8 16 7 22 12 14 9 13 9 10 8 9 7 15 14 9 9 7 8 10 12v2h2l13 19 11 17 13 25 10 23 6 20 5 19 4 20 3 24v52l-3 25-1 4-167 1-4-22-8-72-9-61-4-21 6-14 1-4v-16l-5-14-12-19-8-11-7-10-4-10v-34l-3-17-4-9-6-9-8-7-11-5-5-1h-17l-15 4-10 5-10 9-5 6-2 14v11l1-6h1l2 13v3l3 4 6-6 6 1 4 5-1 7-5 6-2 1 3 11v16l-5 17-6 12-8 3-14 5-9 6-5 6-8 28-3 19-3 35h-1z" fill="#D7DEE4"/>
<path transform="translate(1324,730)" d="m0 0h276v174h-301v32l-1 1h-16l1-13 9-67 9-80 4-38 4-3z" fill="#CB8A67"/>
<path transform="translate(283,552)" d="m0 0h854l-3 14-5 8-8 7-14 6-4 1h-12l-1 7-1 28-1 9-10-1-17-5-8-6-7-8-54-1v-9l4-6 4-3h17l-3-5h-15l-6 4-5 8-1 2-1 9h-686l1-25h-18z" fill="#AA765A"/>
<path transform="translate(1352,709)" d="m0 0h248v21l-276 1-17 7-1 1-11 101-8 63-5 34 16-1 1-32h301v46l-16 2-60 6-81 6-86 5-64 3h-17l-3 17-4 15-30-1 1-16 19-191 1-6h-2v10l-20 200-1 5-17 1h-18l-2-12-5-47-4-43-14-137 9 1 20 4h11l15-4 14-6 12-9 9-9 14-8 19-7 19-4 18-1 12-8 2-2z" fill="#030304"/>
<path transform="translate(585)" d="m0 0h870v70l-64 15-139 32-11 2v55l9 1 10 5 7 7 5 10 1 4v14l-4 11-9 8-13 4h-11l-11-2-10-5-7-8-3-9v-13l4-11 9-10 10-5 10-1v-54h1l1-8v-106l-4 2-10 9-13 8-15 7-19 6-21 4-9 1h-41l-19-3-20-6-14-6-16-10-12-11-3-3v-2h-2l-2 4-9 8-11 7-16 8-22 7-23 4-9 1h-40l-24-4-21-7-16-8-13-9-12-11-5 3-10 9-11 7-15 7-18 6-19 4-17 2h-37l-22-3-18-5-19-8-15-10-10-9-3-3z" fill="#7E513D"/>
<path transform="translate(0,909)" d="m0 0h301l1 27 644 1v43l-90 1h-90l-122-1-72-1-94-2-149-5-86-4-98-6-68-6-39-4-38-5z" fill="#082D33"/>
<path transform="translate(1226,288)" d="m0 0h17l10 3 10 6 7 7 6 10 3 9 2 14v34l4 10 8 11 7 10 13 21 4 12v16l-5 14-6 12-1 7v16l7 28v18l-5 19-7 10-5 5-7 5-10 3h-16l-16-5-11-7-15-14-16-14-7-8-9-12-7-11-6-10-9-20-4-14v-11l4-11 4-6 8-9 5-5 5-6 6-10 6-18 1-4v-16l-3-11 6-5 2-4-1-7-4-3-5 1-5 5-4-5-1-5 1-1-1-4-2 2-1-2v-11l2-14 11-12 10-7 15-5z" fill="#030203"/>
<path transform="translate(999,587)" d="m0 0h15l3 4v2l-17 1-5 4-2 4-1 9h54l9 10 6 4 17 5 10 2v7h17v-2l26-1 20-1-1 6h-68v142h-5v-142l-85 1v137l-1 4-5-1v-141h-687v-30h687v-9l5-9 6-5z" fill="#10363D"/>
<path transform="translate(147)" d="m0 0h218v127h-35l-45-14-17-5-58-18-40-12-23-7z" fill="#7E513D"/>
<path transform="translate(367,70)" d="m0 0h215l1 56v49l9 1 10 5 7 7 5 10 1 3 1 12-3 10-2 4h-3l1 3h-4v2l-9 4h-3v2l-18 1-3-2-8-1-10-5v-3h-76l1 314h-16l1-329h83v-10l4-11 7-9 10-6 7-2h7v-48h-215z" fill="#A77461"/>
<path transform="translate(1082,641)" d="m0 0h68l-1 19-7 78-1 8v13l5 2 5 3 7 2h8l3-1 8 2 1 1 11 108 6 57v4h-81v75h-1v-227l-4-1-27-1z" fill="#A97559"/>
<path transform="translate(1299,904)" d="m0 0h301v46l-16 2-60 6-81 6-86 5-64 3h-17l5-32 1-3 16-1z" fill="#072C32"/>
<path transform="translate(826,303)" d="m0 0h8l12 3 2 1 15 2 8 6 6 7 4 8 5 18 3 17 1 1 3 14 5 15 11 12 7 5v2l5 2 11 10 7 11 3 8 1 8v14l-3 9-4 8-7 6-2-6-4-16-4-11-7-14-8-10-10-6-12-3-9-2-4 10-3 3 4 2v2l-5 4-7 8-14 14-2-1-5-19v-4h-2l-1 7-5 15h-3l-25-25 4-3-4-3-4-10-25 5-9 3-6 4-8 11-4 8-3 9h-24l1-8 8-14 7-8-8 6-7 8-6 10-2 5h-2l2-6 5-9 9-10 11-9 9-7 10-9 9-14 3-6 1 3-5 10 6-8 7-14 10-36 5-13 8-12 8-8 8-5-12 6-7 6-6 10h-2l2-5 6-8 8-7 11-5z" fill="#74311B"/>
<path transform="translate(301,586)" d="m0 0h699l-3 3-6 5-4 8-1 9h-686z" fill="#E9AA88"/>
<path transform="translate(585,127)" d="m0 0h217l1 48-12 3-9 6-6 8-3 7-2 14h-155l-1-1-1-11-4-10-8-9-10-5-7-2z" fill="#F2E7EC"/>
<path transform="translate(805,127)" d="m0 0h217v47l-13 4-10 7-6 10-2 7-1 11h-150l-3-17-6-10-9-7-8-3-8-1-1-1z" fill="#F2E7EC"/>
<path transform="translate(1335,645)" d="m0 0h265v64h-248l-4-10-8-28-5-20z" fill="#EBAC8A"/>
<path transform="translate(733,431)" d="m0 0 2 1-8 9-8 16-1 5h59l5 3 3 5v72h-196v-71l4-6 5-3 113-1 3-9 9-12z" fill="#D33215"/>
<path transform="translate(797,421)" d="m0 0 2 2 3 9 4 3-4 4 12 11 13 13 2-4 6-18h2l6 23 7-6 13-13 5-6h2v-2l-5-2 4-4 3-10 16 3 12 5 8 7 9 14 5 11 5 17 5 32 2 23v9h-38l1-16v-32l-5-22 2 11 3 17v15l-2 23-1 4h-109l-1-72-2-5-5-2-35-1 3-11 6-11 8-9 9-4 12-3z" fill="#011619"/>
<path transform="translate(962,792)" d="m0 0h136l4 2 1 2v92l-3 3-7 1h-130l-5-3-1-1v-92z" fill="#D34A2D"/>
<path transform="translate(962,899)" d="m0 0h137l4 3 1 3v87l-3 5-1 1h-140l-3-3v-92l3-3z" fill="#D74327"/>
<path transform="translate(1,689)" d="m0 0h300l1 24v22h-301l-1-1v-20z" fill="#CB8A67"/>
<path transform="translate(1186,423)" d="m0 0h3l-2 5-7 8-6 5-6 8-4 9-1 4v11l5 17 8 17 6 10 9 14 9 11 6 7 2 2-2 10-5 24-6 18-6 11-9 9-15 8-8 2 3 2 8 131-2 1h-8l-8-3-9-5-1-2v-11l6-63 4-47-19 1h-26v2l-15 1-2-1v-16l1-28 1-8h13l14-5 9-6 5-6 4-11 4-22 4-48 3-19 8-28 8-9 14-7z" fill="#019B8D"/>
<path transform="translate(585,70)" d="m0 0h218v104h-1v-47h-217z" fill="#A77461"/>
<path transform="translate(805,69)" d="m0 0 217 1v57h-217z" fill="#A77461"/>
<path transform="translate(1024,70)" d="m0 0h215v48l-1 2-30 7h-184z" fill="#A77460"/>
<path transform="translate(575,175)" d="m0 0h13l11 4 10 9 5 10 1 3 1 12-3 10-2 4h-3l1 3h-4v2l-9 4h-3v2l-18 1-3-2-8-1-10-5v-3h-76l1 314h-16l1-329h83v-10l4-11 7-9 10-6z" fill="#CB8A67"/>
<path transform="translate(1019,174)" d="m0 0h10l10 3 9 6 6 8 4 10v12h82l1 314-2 15h-13v-314l-74 1-10 5-1 2-8 2h-17l-4-2-6-1-9-6-6-9-1-4v-14l4-11 6-8 9-6z" fill="#CB8A67"/>
<path transform="translate(1241,70)" d="m0 0h210l-4 2-121 28-31 7-43 10-11 2v55l9 1 10 5 7 7 5 10 1 4v14l-4 11-9 8-13 4h-11l-11-2-10-5-7-8-3-9v-13l4-11 9-10 10-5 10-1v-54h1l1-8z" fill="#A77460"/>
<path transform="translate(992,642)" d="m0 0h84v100h-84z" fill="#ECAD8A"/>
<path transform="translate(585,6)" d="m0 0 6 4v2l4 2 14 9 19 9 20 6 19 3 13 1h21l22-2 24-5 20-7 19-10 14-11 3-1v64h-218z" fill="#7D503C"/>
<path transform="translate(367,5)" d="m0 0 7 6 14 10 17 9 21 7 22 4 10 1h27l25-3 21-5 17-6 17-9 13-10 4-3 1 63v57h-1v-56h-215z" fill="#7D503C"/>
<path transform="translate(805,7)" d="m0 0 4 2 11 9 13 8 16 7 20 6 19 3 13 1h17l25-2 21-4 21-7 16-8 11-7 9-8h1v63h-216l-1-1z" fill="#7D503C"/>
<path transform="translate(1080 1e3)" d="m0 0 9 1 6 4 4 5v2l11-1 4-4 14 3 11 4 6 4 3 3v5l-7 6-8 4-19 5-18 3-32 3-23 1h-30l-34-2-18-2-23-4-17-5-9-5-4-4 1-6 6-5 9-4 14-4 11-1 2 4 2 1h11l6-5 10-2 9 3 4 4 75 1 2-5 6-5z" fill="#072C32"/>
<path transform="translate(1024,7)" d="m0 0 2 1v2l4 2 9 8 15 9 11 5 18 6 22 4 13 1h20l22-2 17-3 17-5 19-8 11-7 9-7 5-4v61h-214z" fill="#7D503C"/>
<path transform="translate(147)" d="m0 0h1v70h217v57h-35l-45-14-17-5-58-18-40-12-23-7z" fill="#A77461"/>
<path transform="translate(846,327)" d="m0 0h2l4 7 5 6 8 6v7h-13l-6 3 3-1 2-1h11l3 1 1 7 9 2 2 2v8l-4 4h-6l-1-2 3-4v-2l-3 5v10l-7 14-4 5 1 10 1 6 14 1-1 10-4 4 4 2v2l-5 4-7 8-14 14-2-1-5-19v-4h-2l-1 7-5 15h-3l-25-25 4-3-4-3-3-10 15-4 3-7v-8l-5-8v-3l-4-2-3-10v-3h-7l-3-4v-7l4-4h6l2 2 1-15 5-5 14-3 12-6 7-6z" fill="#F7F4F4"/>
<path transform="translate(1,713)" d="m0 0h298l2 1v21h-300l-1-1v-20z" fill="#0F3C41"/>
<path transform="translate(1352,709)" d="m0 0h248v21l-276 1-17 7-10 4-11 5-15 10-3 1v2l-16 9-10 4-7 1h-25v-1l16-3 16-6 11-7 10-9 7-6 16-8 18-6 15-3 18-1 12-8 2-2z" fill="#10373E"/>
<path transform="translate(1082,641)" d="m0 0h68l-1 19-7 78-1 4h-59z" fill="#EAAC8A"/>
<path transform="translate(585)" d="m0 0h220l-1 2-5 3-10 9-11 7-15 7-18 6-19 4-17 2h-37l-22-3-18-5-19-8-15-10-10-9-3-3z" fill="#7D503C"/>
<path transform="translate(1344,684)" d="m0 0h256v25h-248l-4-10-4-13z" fill="#CA8A67"/>
<path transform="translate(818,992)" d="m0 0h21l17 2 16 4 12 5 9 7 3 7-1 6-7 8-14 7-14 4-13 2-21 1-22-2-17-4-12-5-8-6-4-5v-9l4-6 11-7 14-5 16-3z" fill="#ACB2B5"/>
<path transform="translate(780,465)" d="m0 0h2l3 5v72h-118l5-4 4-4 1-9-4-5 7-2 3-6h2l3 6 7 2 1 2 54-36 29-19z" fill="#DA4225"/>
<path transform="translate(999,587)" d="m0 0h15l3 4v2l-17 1-5 4-2 4-1 9h54l9 10 6 4 17 5 10 2v7h17v-2l26-1 20-1-1 6h-68v142h-5v-142l-85 1v137l-1 4-5-1v-141l-2-1h2v-28l1-12 5-8 5-4z" fill="#10363D"/>
<path transform="translate(365)" d="m0 0 4 2 5 6 12 9 14 8 14 6 23 6 15 2 21 1 28-2 25-5 18-6 16-8 12-8 9-8 1-2 4 1 9 9 15 10 12 6 17 6 17 4 16 2h37l23-3 23-6 15-6 16-9 10-8 7-6 7 6 14 11 14 8 15 6 18 5 19 3h40l22-3 17-4 20-7 18-10 13-11 2-3h2l7 8 8 7 13 8 14 7 19 6 15 3 8 1h41l20-3 17-4 17-6 17-9 13-10 5-5 3 1v106l-1 62h-1l-1-62v-42l-1-60-7 7-14 9-14 7-21 7-13 3-16 2-14 1h-20l-20-2-22-5-18-7-16-9-10-8-6-5-1-2-1 166h-2l-1-166-10 9-15 9-19 8-18 5-16 3-25 2h-17l-22-2-21-5-19-7-13-7-11-8-10-8v168h-2v-169l-17 13-19 10-24 8-20 4-22 2h-21l-21-2-18-4-18-6-21-11-11-8v-2l-4-2-1-1-1 168h-2l-1-106-1-62-10 9-15 9-13 6-19 6-20 4-19 2h-27l-23-3-19-5-15-6-15-8-13-10-5-5-1 168h-2z" fill="#05191A"/>
<path transform="translate(962,792)" d="m0 0h136l4 2 1 2v92l-3 3-7 1h-130l-5-3-1-1v-92zm8 9-3 2-1 6v69l3 5 1 1h119l4-4v-75l-3-4z" fill="#030203"/>
<path transform="translate(1558 1e3)" d="m0 0h33l8 1 1 1v48l-12 2h-27l-20-3-18-6-9-6-5-6-1-2 1-9 4-5 10-6 13-5 14-3z" fill="#ACB2B6"/>
<path transform="translate(962,899)" d="m0 0h137l4 3 1 3v87l-3 5-1 1h-140l-3-3v-92l3-3zm10 8-4 2-1 2v77l4 3h118l4-4v-76l-3-3-2-1z" fill="#030203"/>
<path transform="translate(585,265)" d="m0 0h14l10 4 10 9 6 12 1 4v12l-5 13-9 10-7 4-7 2h-16l-10-4-10-9-5-10-2-7v-13l4-8 2-5 3-3h2l2-4 7-4 4-2z" fill="#F2E6EB"/>
<path transform="translate(339,379)" d="m0 0 8 1 8 8 8 16 3 11 1 6v12l-9 12-7 16-4 13-4 1h-20l-9-9-9-13-7-15-1-4v-8l2-3h10l11 6 7 7 1 2-1-9v-26l3-13 5-8z" fill="#009307"/>
<path transform="translate(384,422)" d="m0 0h6l3 3v10l-4 12-9 15-12 13h-2l5 5 6 8 4 9v13h-77v-11l4-10 4-6 7-7 4-2h24l2-10 6-15 7-11 9-10 10-5z" fill="#7E513D"/>
<path transform="translate(1e3 267)" d="m0 0h20l11 6 6 5 7 12 1 6v8l-3 12-6 9-7 6-9 4-6 1h-8l-10-3-8-4-7-8-3-5-2-6v-18l5-11 6-7 4-1v-2z" fill="#F2E7EB"/>
<path transform="translate(1050,570)" d="m0 0h11l5 5 3 8v3h37l-3 2h-12l-1 7-1 28-1 9-10-1-17-5-8-6-7-8-54-1v-9l4-6 4-3h17l-3-5 1-4-4-3 8-8 3-1z" fill="#E9AB88"/>
<path transform="translate(1238,120)" d="m0 0h1v54h8l10 4 10 9 5 10 1 4v14l-4 11-9 8-13 4h-11l-11-2-10-5-7-8-3-9v-13l4-11 9-10 10-5 10-1z" fill="#DFAA06"/>
<path transform="translate(972,907)" d="m0 0h116l4 2 1 2v76l-4 4h-118l-4-3v-77l2-3zm9 8-4 4v59l2 3 3 1h96l2-1v-2h2v-60l-4-4z" fill="#D44225"/>
<path transform="translate(1019,174)" d="m0 0h10l10 3 9 6 6 8 4 10v16l-3 7-5 6-8 4-1 2-8 2h-17l-4-2-6-1-9-6-6-9-1-4v-14l4-11 6-8 9-6z" fill="#E0AB04"/>
<path transform="translate(358,174)" d="m0 0h16l10 4 10 9 5 10 1 4v14l-4 10-4 5-12 6-4 1h-19l-12-4-5-3-6-9-2-7v-14l4-10 9-10 9-5z" fill="#E0AB04"/>
<path transform="translate(805,174)" d="m0 0 12 2 8 4 7 6 6 10 2 10v9l-3 8-4 6-3 2-11 5-4 1h-23l-3-1v-2l-7-2-8-8-3-8v-12l3-10 6-9 7-6 10-4z" fill="#E1AC03"/>
<path transform="translate(575,175)" d="m0 0h13l11 4 10 9 5 10 1 3 1 12-3 10-2 4h-3l1 3h-4v2l-9 4h-3v2l-18 1-3-2-8-1-1-3-5-2-3-2v-2l-4-1-4-10v-13l4-11 7-9 10-6z" fill="#E1AC03"/>
<path transform="translate(1308,471)" d="m0 0h2l5 25 8 55 8 72 5 28 9 35 7 22v6l-7 6-4 2-9-16-6-16-6-25-4-29-2-24-1-19-1-49-1-16-7-28v-16l2-10z" fill="#017368"/>
<path transform="translate(1114,937)" d="m0 0h81l3 29v9l-55 2h-29z" fill="#072C32"/>
<path transform="translate(981,811)" d="m0 0h48v30h17v4h-17v28h-48l-2-2v-58z" fill="#C42C10"/>
<path transform="translate(981,918)" d="m0 0h48v29l18 1v3l-18 1 1 27h-50l-1-2v-57z" fill="#C62B0F"/>
<path transform="translate(1029,811)" d="m0 0h49l1 1v59l-2 2h-48v-28l17-1v-2l-17-1z" fill="#D94225"/>
<path transform="translate(798,265)" d="m0 0h12l11 3 9 6 3 3v2h2l5 10 1 4v11h-15l-14 3-11 6-7 7-6 10-5-2-7-7-4-7-2-7v-12l3-11 6-9 8-6z" fill="#D9DEE3"/>
<path transform="translate(992,641)" d="m0 0h85v142l-21 1v-1h7l-3-6-5-6-11-6-4-1h-17l-12 5-3 3h-2l-2 4-4 7h-9v-141zm0 1v100h84v-100z" fill="#AC775B"/>
<path transform="translate(1258,790)" d="m0 0h2l-1 17-19 190-1 6h22l8 1 1-5 7 1 12 5 8 6 4 6v7l-4 6-8 6-12 5-16 4-21 2h-11l-21-2-16-4v-1h23l4 1h12l4-2 15 2h12l5-3v-13l-1-15-12 6-10 1-5-3-4-5-12 7-10 1-5-3-3-4-16 2-7 1h-11l4-5 14-7 9-3h3l1 8 18-1h17l2-25z" fill="#ACB0B3"/>
<path transform="translate(615,213)" d="m0 0h156l4 11v2l5 2 2 3-4-2h-170v-2h3l3-9z" fill="#CB8A67"/>
<path transform="translate(1158,634)" d="m0 0 2 1 8 131-2 1h-8l-8-3-9-5-1-2v-11l6-63 4-47 1-1z" fill="#017267"/>
<path transform="translate(840,213)" d="m0 0h150l4 11 3 4-165 1 5-7z" fill="#CB8A67"/>
<path transform="translate(381,501)" d="m0 0h1v14l-4 11-6 9-7 6-2 1h-41l-10-9-5-7-3-9-1-13h1v6h77z" fill="#7E513D"/>
<path transform="translate(846,327)" d="m0 0h2l4 7 5 6 8 6v7h-13l-6 3 3-1 2-1h11l3 1 1 7 9 2 2 2v8l-4 4h-6l-1-2 3-4v-2l-4 6-11-5-7-2h-17l-16 4-9 4h-8l-3-4v-7l4-4h6l2 2 1-15 5-5 14-3 12-6 7-6z" fill="#F2C59A"/>
<path transform="translate(830,368)" d="m0 0h17l12 4 6 4 1 2v7l-7 14-6 7-7 4-4 1h-12l-10-4-7-8-2-4v-3l-4-2-3-10 1-4 12-5z" fill="#FAF6F7"/>
<path transform="translate(585,265)" d="m0 0h14l10 4 3 3-9 10-11 14-3 4 11-8 10-9 3-1-2 4-11 9-8 7h-5l-13 16-6 8-4-2-6-9-3-10v-13l4-8 2-5 3-3h2l2-4 7-4 4-2z" fill="#D8DDE3"/>
<path transform="translate(1e3 267)" d="m0 0h20l10 5-1 4-12 15h-2l-3 13-11 6-12 16-3 1-7-9-3-8v-18l5-11 6-7 4-1v-2z" fill="#D0D6DB"/>
<path transform="translate(970,801)" d="m0 0h59v7l-48 1-3 3v59l2 3 49 1v8h54v1h-113l-3-3-1-3v-69l2-7z" fill="#C22B0F"/>
<path transform="translate(365)" d="m0 0 4 2 5 6 12 9 14 8 14 6 23 6 15 2 21 1 28-2 25-5 18-6 16-8 12-8 9-8 1-2 4 1 9 9 15 10 12 6 17 6 17 4 16 2h37l20-2v3l-15 2-13 1h-21l-21-2-18-4-18-6-21-11-11-8v-2l-4-2-1-1-1 168h-2l-1-106-1-62-10 9-15 9-13 6-19 6-20 4-19 2h-27l-23-3-19-5-15-6-15-8-13-10-5-5-1 168h-2z" fill="#082123"/>
<path transform="translate(972,907)" d="m0 0h116v1h-59v7l-48 1-3 3v59l1 3 4 1 46 1v7h-60l-2-2v-77l2-3z" fill="#BF2A0F"/>
<path transform="translate(1197,346)" d="m0 0 6 1 4 5-1 7-5 6-2 1 3 11v16l-2 6-9 5h-7l-6-3-6-7-3-9-1-6v-14l1-8 3-8 1 2-1 4 14-2 4-2h2z" fill="#FAF5F5"/>
<path transform="translate(1235,1008)" d="m0 0 7 7 2 1 10-1 9-5h3l1 2v6l-5 1-5 6-2 10-10-1-8-1-2-15-4 1-4 4-3 12h-7l-4-1h-38l-7-2-6-3-5-6v-6l7-3 5-1-2 6 2 1h10l7-2 16-1 3-1 2-4 3 3 9 1 10-4z" fill="#019CA4"/>
<path transform="translate(667,336)" d="m0 0 6 1 1 6-2 3v17h13l1 1v41l-1 1-30 1v-44l11-1v-17l-1-1v-6z" fill="#E2AD05"/>
<path transform="translate(1e3 260)" d="m0 0h14l12 4 10 7 7 9 5 12v13l-3 12-6 10-8 7-6 4-10 3h-15l-12-4-6-4-5-4-3-3-7-14-1-4v-14l5-13 4-6 7-8 12-6zm-3 7-9 4v2l-4 1-7 8-4 10v18l4 9 6 8 5 4 10 4 5 1h8l9-2 10-6 7-8 4-10 1-6v-8l-2-8-7-11-8-6-8-4z" fill="#D74A2C"/>
<path transform="translate(949,335)" d="m0 0 6 1 1 1v6l-1 1-1 16h12l1 2v40l-1 1h-28l-1-1v-41h11v-17l-1-1 1-7z" fill="#E2AD05"/>
<path transform="translate(384,422)" d="m0 0h6l3 3v10l-4 12-9 15-12 13-5 1-20-1 4-1 2-10 6-15 7-11 9-10 10-5z" fill="#12383E"/>
<path transform="translate(796,260)" d="m0 0h18l10 3 10 8 7 9 4 9 1 13-2 4-5-1 2-1-2-15-4-8v-2h-2l-5-6-9-5-9-2h-12l-11 4-8 6-5 8-3 11v12l4 11 8 9 7 3 2-5 6-8 8-6 9-4 4 1-12 6-8 8-8 13-6 18-8 29-8 16-6 7v-3l4-8 3-12 13-43 2-4-5-2-8-8-4-6-4-14v-13l4-11 7-9 5-5h2v-2l8-4z" fill="#D74A2C"/>
<path transform="translate(586,259)" d="m0 0h9l9 2 10 5 10 9 4 7 4 11v13l-4 13-1 2h-2v3l-5 5-6 5h-2v2l-9 3-5 2h-14l-10-3-10-7-8-9-4-9-2-4v-18l5-13h2l2-5 8-7 4-3 9-3zm-1 6-8 2-8 4-3 3v2h-2l-4 4-4 10-1 2v13l4 12 6 8 7 6 10 4h16l11-4 10-9 5-10 2-6v-12l-4-11-4-6-9-8-10-4z" fill="#D64C2F"/>
<path transform="translate(1258,790)" d="m0 0h2l-1 17-19 190-1 6h22l6 2-2 5-11 6-10 1-5-3-4-5-12 7-10 1-5-3-3-4-16 2-7 1h-11l4-5 14-7 9-3h3l1 8 18-1h17l2-25z" fill="#D6BDAA"/>
<path transform="translate(999,587)" d="m0 0h15l3 4v2l-17 1-5 4-3 7v174l-1 4-5-1v-141l-2-1h2v-28l1-12 5-8 5-4z" fill="#100F0E"/>
<path transform="translate(975,1008)" d="m0 0 10 2 8 7 2 4v11l-3 6-7 6-3 1h-11l-6-3-6-7-1-3v-11l2-5 8-6z" fill="#030809"/>
<path transform="translate(1080 1e3)" d="m0 0 9 1 6 4 4 5v2h2v12l-4 7-6 5-3 1h-12l-6-4-5-6-1-3v-11l6-8 6-4z" fill="#030909"/>
<path transform="translate(1232,1017)" d="m0 0 4 1 1 15h8l10 2v-7l3-6 6-5 3 1 1 7v13l-3 3-3 1h-12l-15-2-4 2h-12l-9-2h-37l-10-4-6-7-1-7 5 5 5 3 3 2 6 1h38l11 2 1-10 4-6z" fill="#030809"/>
<path transform="translate(1319,725)" d="m0 0h16l-3 3-20 8-6 3-9 3-11 5-15 10-3 1v2l-16 9-10 4-7 1h-25v-1l16-3 16-6 11-7 10-9 7-6 16-8 18-6z" fill="#017166"/>
<path transform="translate(1076,630)" d="m0 0 12 2v7h17v-2l26-1 20-1-1 6h-68v142h-5z" fill="#020203"/>
<path transform="translate(1297,814)" d="m0 0h1l1 90v32l-1 1h-16l1-13 9-67z" fill="#A87459"/>
<path transform="translate(817,404)" d="m0 0 10 5 3 1h12l8-3 4-2 4 16-1 4-4 6-5 4-3 1h-13l-10-4-6-4v-2h-2l-2-6-2-1 4-2 2-6z" fill="#F7CB9D"/>
<path transform="translate(826,272)" d="m0 0 4 2 3 3v2h2l5 10 1 4v11h-15l-14 3-11 6-7 7-6 10-5-2v-3l11-14 7-9 21 1v-2h-14l5-5 14-11-7 4-13 11-4 1 4-6 18-22z" fill="#EFE3E6"/>
<path transform="translate(1238,5)" d="m0 0 3 1v106l-1 62h-1l-1-62v-42l-1-60-7 7-14 9-14 7-21 7-13 3-16 2-14 1h-20l-20-2-22-5-18-7-16-9v-3l5 2 10 6 15 6 17 5 19 3h41l20-3 17-4 17-6 17-9 13-10z" fill="#071316"/>
<path transform="translate(304,499)" d="m0 0h77v11h-77z" fill="#73311A"/>
<path transform="translate(582,1)" d="m0 0 4 1 9 9 15 10 12 6 17 6 17 4 16 2h37l20-2v3l-15 2-13 1h-21l-21-2-18-4-18-6-21-11-11-8v-2l-4-2-1-1-1 168h-2l-1-106-1-62-8 7-1-3 9-8z" fill="#092326"/>
<path transform="translate(981,915)" d="m0 0h97l4 4v60h-2v2l-2 1h-96l-3-1-2-3v-59zm0 3-2 2v57l2 3h96l2-2v-59l-1-1z" fill="#EEBFA6"/>
<path transform="translate(1090,587)" d="m0 0 9 1 4 30 1 9v9h27v1h-26v2l-15 1-2-1v-16l1-28z" fill="#017267"/>
<path transform="translate(980,809)" d="m0 0h99l2 2v61l-2 3h-99l-3-4v-59zm1 2-2 2v58l2 2h96l2-2v-59l-1-1z" fill="#F2E6E0"/>
<path transform="translate(1022,2)" d="m0 0h2l7 8 8 7 3 2v2l-4-1-10-9-3-3-1 166h-2l-1-166-10 9-15 9-19 8-18 5-10 1 3-3 17-4 20-7 18-10 13-11z" fill="#060F12"/>
<path transform="translate(971,1014)" d="m0 0h11l6 5 2 9-3 7-5 4h-11l-5-4-2-4v-10l5-6z" fill="#A27361"/>
<path transform="translate(1077,1010)" d="m0 0h10l5 3 3 5v9l-3 5-5 3h-10l-6-5-1-2v-11l5-6z" fill="#996F5D"/>
<path transform="translate(1023,763)" d="m0 0h17l10 4 8 6 5 7v3h-8l-5-6-9-5-5-1h-9l-11 4-5 4-3 4h-8l2-6 4-5 9-6z" fill="#030405"/>
<path transform="translate(1231,290)" d="m0 0h12l13 4 9 7 6 8 4 8 3 11 1 7v16l-1 9-2-3-6-28-4-12-6-10-9-8-10-5-10-3z" fill="#D2D6DB"/>
<path transform="translate(1235,1010)" d="m0 0 4 2 3 3 2 1 10-1 9-5h3l1 2v6l-5 1-5 6-2 10-10-1-8-1-2-15-1-2z" fill="#0198A0"/>
<path transform="translate(1027,770)" d="m0 0h9l9 3 8 6 2 4h-47l4-6 8-5z" fill="#A77458"/>
<path transform="translate(977,919)" d="m0 0h2l1 58 1 2h96l2-2 1-56h1v58l-3 3h-96l-3-1-2-3z" fill="#F3E2DF"/>
<path transform="translate(1238,5)" d="m0 0 3 1v106l-1 62h-1l-1-62v-42l-1-60-5 5-2-1z" fill="#07292B"/>
<path transform="translate(1308,471)" d="m0 0h2l4 19-1 41-2-3-7-28v-16l2-10z" fill="#019CA1"/>
<path transform="translate(1184,316)" d="m0 0h1l-1 11v11l1-6h1l2 13v3l1 3-3 3-4 1h-10v-9l3-9h2l1-5z" fill="#F3C9A0"/>
<path transform="translate(1082,631)" d="m0 0 6 1v7h17v-2l26-1 20-1-1 6h-67l-1-1z" fill="#11373E"/>
<path transform="translate(1201,1009)" d="m0 0 5 1v6l-4 2-16 1-7 2h-10l-3-2 2-4 4-2 23-3z" fill="#030C0D"/>
<path transform="translate(357,219)" d="m0 0h19l3 2v7l-10 5-8-1-5-4-2-5v-3z" fill="#F9F3F2"/>
<path transform="translate(1231,219)" d="m0 0h16l5 2-1 6-5 5-2 1h-8l-6-4-3-6 1-3z" fill="#FAF4F1"/>
<path transform="translate(796,220)" d="m0 0h20l3 1-1 6-5 5-3 2h-8l-6-4-2-4v-5z" fill="#FBF8F8"/>
<path transform="translate(1198,998)" d="m0 0h3l1 8 4 1-1 2-23 4h-11l4-5 14-7z" fill="#ACACAE"/>
<path transform="translate(576,220)" d="m0 0h13l5 1-1 7-1 2-6 2v2l-10 1-1-4-3-1-2-4v-5z" fill="#F9F0EC"/>
<path transform="translate(1014,220)" d="m0 0h22l1 5-2 4-3 1-2 3h-10l-6-4-2-5v-3z" fill="#F9F5F6"/>
<path transform="translate(852,477)" d="m0 0h33l2 4v3h-39l2-6z" fill="#DEA905"/>
<path transform="translate(1197,346)" d="m0 0 6 1 4 5-1 7-5 6-4 2-5-4-4-6 2-5z" fill="#EFC196"/>
<path transform="translate(1206,1006)" d="m0 0h31l-1 3-13 7-10 1-5-3-3-4z" fill="#F0CAA3"/>
<path transform="translate(918,417)" d="m0 0 4 2 10 10 5 8 4 11v18l-2 9-6 10-4 3 2-6 3-7 2-11v-16l-6-15-7-10z" fill="#D8B19B"/>
<path transform="translate(1232,11)" d="m0 0m-1 1m-2 1 2 1-1 3-14 9-14 7-21 7-13 3-16 2h-19v-1l32-4 21-5 17-6 17-9z" fill="#081619"/>
<path transform="translate(801,302)" d="m0 0 20 1-1 2-10 3-10 6-8 9-4 7-5-2v-3l11-14z" fill="#F2E6EA"/>
<path transform="translate(786,337)" d="m0 0h3l-2 9-7 26-4 12-7 14-6 7v-3l8-17 4-12 4-14 6-20z" fill="#D7AF99"/>
<path transform="translate(683,512)" d="m0 0h2l3 6 7 2-4 5v8l-5-1-3-1-6 2v-8l-4-5 7-2z" fill="#F8F2F2"/>
<path transform="translate(1075,809)" d="m0 0 5 1 1 1v60h-2l-1-59-96-1v-1z" fill="#E7C7B8"/>
<path transform="translate(978,871)" d="m0 0 3 1h96l4-1-2 4h-99z" fill="#F1E5E9"/>
<path transform="translate(819,407)" d="m0 0 5 1 6 2h12l10-3-1 5-5 4h-2v2l-3 1h-9l-8-5-5-5z" fill="#ECAE88"/>
<path transform="translate(866,37)" d="m0 0 10 1 14 2h40l20-2v3l-15 2-17 1h-17l-22-2-14-3z" fill="#09191C"/>
<path transform="translate(650,37)" d="m0 0 13 1 9 1h37l20-2v3l-15 2-13 1h-21l-21-2-11-2z" fill="#08191C"/>
<path transform="translate(801,2)" d="m0 0 2 1v3l-17 13-19 10-24 8-9 2h-6l1-2 26-7 15-6 16-9 10-8z" fill="#071619"/>
<path transform="translate(1226,288)" d="m0 0h17l10 3 10 6 7 7 6 10 3 9 2 14v12l-1 20h-1l-1-18v-16l-3-15-4-9-6-9-9-7-13-4h-14v-2z" fill="#192E2B"/>
<path transform="translate(1207,551)" d="m0 0h1v8l-5 25-8 24-8 11-10 8-13 6-3 1h-12v-1l16-3 15-8 8-8 8-16 6-21 4-24z" fill="#C3CACF"/>
<path transform="translate(571,12)" d="m0 0 1 3-14 9-15 7-19 6-14 3h-6l1-2 25-6 21-8 14-8z" fill="#081619"/>
<path transform="translate(805,5)" d="m0 0 4 1 12 10 17 10 15 6 13 4v2l-8-1-19-7-13-7-11-8-10-8z" fill="#071417"/>
<path transform="translate(1011,13)" d="m0 0m-2 1 3 1-4 4-16 9-21 8-17 4h-5l3-3 17-4 20-7 18-10z" fill="#071114"/>
<path transform="translate(733,431)" d="m0 0 2 1-8 9-8 16-1 6h-7l-1-2 6-12 8-10z" fill="#D8B099"/>
<path transform="translate(948,375)" d="m0 0h7l3 4-1 7-4 3-6-1-3-4 1-7z" fill="#F3E4E2"/>
<path transform="translate(668,377)" d="m0 0 6 1 3 4-1 6-3 3h-6l-4-4v-6z" fill="#F3E4E1"/>
<path transform="translate(917,414)" d="m0 0 5 3 10 9 7 11 3 8 1 8v14l-3 9-4 8-3 2 2-6 3-5 2-9v-18l-4-11-7-10-9-9-4-2z" fill="#824C34"/>
<path transform="translate(501,38)" d="m0 0 4 1-1 2-19 2h-27l-6-1v-2h21z" fill="#081B1F"/>
<path transform="translate(1308,420)" d="m0 0 3 4 4 11v17l-5 13h-1l1-12v-20z" fill="#D1D4D9"/>
<path transform="translate(1082,631)" d="m0 0 6 1v7l61 1v1h-66l-1-1z" fill="#082D34"/>
<path transform="translate(796,220)" d="m0 0h20l3 1-1 6-5 5-3 2h-8l-6-4-2-4v-5zm1 1v5l5 5h8l5-4 1-6z" fill="#F1D4C0"/>
<path transform="translate(1010,841)" d="m0 0h36l1 3h-38z" fill="#030203"/>
<path transform="translate(1010,948)" d="m0 0h37v3h-37z" fill="#030203"/>
<path transform="translate(815,307)" d="m0 0 4 1-12 6-8 8-7 11-3-1 2-6 7-9 8-6z" fill="#EFE1E2"/>
<path transform="translate(826,303)" d="m0 0h8l-4 1v2l-15 2-12 6-7 6-6 10h-2l2-5 6-8 8-7 11-5z" fill="#7A5643"/>
<path transform="translate(783,339)" d="m0 0 2 3-5 17-4 14-6 17-2 1 2-9z" fill="#885239"/>
<path transform="translate(766,26)" d="m0 0h2l-1 3-24 8-9 2h-6l1-2 26-7z" fill="#071315"/>
<path transform="translate(1228,220)" d="m0 0h2l3 7 5 3 6-1 4-4 2-5 2 1-1 6-5 5-2 1h-8l-6-4-3-6z" fill="#EFD5C6"/>
<path transform="translate(354,220)" d="m0 0h3l3 7 3 2h8l5-3 2-5 1 4-1 4-9 4-8-1-5-4-2-5z" fill="#EDCFBB"/>
<path transform="translate(612,282)" d="m0 0v3l-14 12-6 5-5-1-11-11 4 1 9 8 5-2 10-9z" fill="#103331"/>
<path transform="translate(826,284)" d="m0 0 2 1-17 14-2 1 13 1v2h-19l5-5 16-13z" fill="#143230"/>
<path transform="translate(1169,39)" d="m0 0 4 1-1 2-20 3h-19v-1l32-4z" fill="#061215"/>
<path transform="translate(1313,426)" d="m0 0 2 2 2 7v16l-5 14-2-2 4-11v-17l-2-8z" fill="#1B3D39"/>
<path transform="translate(1184,316)" d="m0 0h1l-1 11v13l-7-3 1-5z" fill="#EFC298"/>
<path transform="translate(949,335)" d="m0 0 6 1 1 1v6l-2 2h-5l-2-2 1-7z" fill="#0C0D0C"/>
<path transform="translate(1109,43)" d="m0 0h31l-2 3h-20l-9-1z" fill="#0A2429"/>
<path transform="translate(736,427)" d="m0 0 2 1-2 3-5 3-9 8-9 14-2 5h-2l2-6 5-9 9-10z" fill="#7F4A32"/>
<path transform="translate(1232,11)" d="m0 0m-1 1m-2 1 2 1-1 3-14 9-7 4-4-1 8-5 14-9z" fill="#071114"/>
<path transform="translate(667,336)" d="m0 0 6 1 1 6-3 3-5-1-1-1v-6z" fill="#0A0B0B"/>
<path transform="translate(1033,220)" d="m0 0 4 1-1 6-1 2-3 1-2 3h-10l-6-4-2-5v-3h2l2 7 3 2h9l5-4 2-5z" fill="#F0D1BC"/>
<path transform="translate(1070,588)" d="m0 0 4 2 6 7 1 4h-6l-4-5z" fill="#0C0808"/>
<path transform="translate(857,309)" d="m0 0h6l8 6 6 7 1 3-2 2-5-7v-2h-2v-2l-12-6z" fill="#8E5841"/>
<path transform="translate(866,37)" d="m0 0 10 1 14 2 2 1v2l-18-2-9-2z" fill="#08171B"/>
<path transform="translate(1042,20)" d="m0 0 5 2 10 6 7 3v2l-6-1-16-9z" fill="#071316"/>
<path transform="translate(941,455)" d="m0 0h1l1 5v7l-3 9-4 8-3 2 2-6 3-5 2-9z" fill="#8D5840"/>
<path transform="translate(1312,544)" d="m0 0h1v44h-1l-1-33-2 1z" fill="#01978B"/>
<path transform="translate(365)" d="m0 0 4 2 5 6 9 7-1 3-10-8-4-4v-2h-3z" fill="#071417"/>
<path transform="translate(819,358)" d="m0 0 5 2v-2h2v3l5 1v3l-3-2-3 3h-3v-4l-6 2-2-3h4z" fill="#8B533C"/>
<path transform="translate(650,37)" d="m0 0 13 1 9 1-1 3-18-2-5-1z" fill="#091C20"/>
<path transform="translate(859,359)" d="m0 0 1 3h4l-1 3-6-2-1 4-4-1v-2l-5 2v-2l3-2h3l1-2z" fill="#854D34"/>
<path transform="translate(1226,288)" d="m0 0h17l10 3v2l-10-2h-14v-2z" fill="#113735"/>
<path transform="translate(628,30)" d="m0 0 22 6v2l-9-1-13-4z" fill="#081518"/>
<path transform="translate(1082,631)" d="m0 0 6 1v7l2 1h-8z" fill="#10363D"/>
<path transform="translate(947,38)" d="m0 0 3 1v2l-15 2h-7l2-3z" fill="#091E22"/>
<path transform="translate(523,34)" d="m0 0h3v2l-16 4h-6l1-2z" fill="#061013"/>
<path transform="translate(570,221)" d="m0 0h2l3 7 4 3v2h7v1l-10 1-1-4-3-1-2-4z" fill="#ECCDBA"/>
<path transform="translate(726,37)" d="m0 0 3 1v2l-15 2h-5v-3z" fill="#091C20"/>
<path transform="translate(847,31)" d="m0 0 9 2 10 3v2l-8-1-11-4z" fill="#071114"/>
<path transform="translate(843,411)" d="m0 0 4 2-1 3-2 1h-13l-1-2 11-1 3 1v-2l-4-1z" fill="#E2AD02"/>
<path transform="translate(1185,332)" d="m0 0h1l2 13-3-1v-2l-4-1-6-2v-2l6 1 4 2z" fill="#7B5A47"/>
<path transform="translate(766,26)" d="m0 0h2l-1 3-14 5-3-1 5-3z" fill="#071113"/>
<path transform="translate(1191,609)" d="m0 0 3 1-8 10-7 5-1-2 8-7z" fill="#C0C6CB"/>
<path transform="translate(1200,586)" d="m0 0h1l-1 8-5 14-3 1 2-6z" fill="#C7CED3"/>
<path transform="translate(783,339)" d="m0 0 2 3-5 17-2-1 2-10z" fill="#925C43"/>
<path transform="translate(805,300)" d="m0 0 17 1v2h-19z" fill="#0A3E40"/>
<path transform="translate(612,23)" d="m0 0 13 5 4 4-6-1-11-6z" fill="#060F11"/>
<path transform="translate(962,35)" d="m0 0h4v2l-12 3h-5l3-3z" fill="#061214"/>
<path transform="translate(1064,32)" d="m0 0 11 3 3 1v3l-10-3-6-2z" fill="#091B1E"/>
<path transform="translate(917,414)" d="m0 0 5 3 10 9-2 2-10-10-4-2z" fill="#8B5540"/>
<path transform="translate(1095,41)" d="m0 0 13 1 1 3-17-2z" fill="#08181B"/>
<path transform="translate(718,443)" d="m0 0 3 1-7 10-3 7h-2l2-6 5-9z" fill="#844F39"/>
<path transform="translate(1313,426)" d="m0 0 2 2 2 7v11h-1l-3-14-1-5z" fill="#1B2C2A"/>
<path transform="translate(816,221)" d="m0 0h3l-1 6-7 5h-8v-1l9-2 3-4z" fill="#F1DDD5"/>
<path transform="translate(539,29)" d="m0 0 2 1-1 2-12 4h-2v-3z" fill="#071417"/>
<path transform="translate(850,407)" d="m0 0h2l-1 5-4 3-2-3-3-2z" fill="#EDB08C"/>
<path transform="translate(788,330)" d="m0 0 1 2h2l-1 6-4-1-2 4 1-6z" fill="#A4442A"/>
<path transform="translate(1232,11)" d="m0 0m-1 1m-2 1 2 1-1 3-9 6-1-3z" fill="#081619"/>
<path transform="translate(801,2)" d="m0 0 2 1v3l-9 7-1-2 7-8z" fill="#091C1F"/>
<path transform="translate(501,38)" d="m0 0 4 1-1 2-13 1v-3z" fill="#0A1E22"/>
<path transform="translate(1173,343)" d="m0 0 1 2h3v-2h2v3l4-1-1 3-6-2v3l-4-1z" fill="#8A523B"/>
<path transform="translate(975,31)" d="m0 0 3 1-1 2-11 3-1-3z" fill="#091B1F"/>
<path transform="translate(869,316)" d="m0 0 4 1 5 7-2 3-5-7v-2h-2z" fill="#915F47"/>
<path transform="translate(767,391)" d="m0 0 1 3-5 9-1 4-3-1z" fill="#814C37"/>
<path transform="translate(1200,350)" d="m0 0h2l-1 6 1 4h-2v-3h-2v6h-1v-8z" fill="#885338"/>
<path transform="translate(826,303)" d="m0 0h8l-4 1v2l-11 1 4-3z" fill="#A36B54"/>
<path transform="translate(975,1024)" d="m0 0 5 1-1 4h-5z" fill="#051A1C"/>
<path transform="translate(1238,5)" d="m0 0h2l-1 4-7 6-2-1z" fill="#050B0D"/>
</svg>
