<svg width="63" height="49" viewBox="0 0 63 49" fill="none" xmlns="http://www.w3.org/2000/svg">
<circle cx="20.7308" cy="24.5" r="6.91026" fill="#B81111"/>
<path d="M32.0384 19.4744L34.4734 21.6658C36.9641 23.9075 38.6205 26.9281 39.1714 30.2335V30.2335C39.4399 31.8445 39.4399 33.4888 39.1714 35.0998L38.9213 36.6003C38.5305 38.9448 37.417 41.1086 35.7363 42.7893V42.7893C34.1444 44.3813 32.1168 45.4664 29.9091 45.9079L26.194 46.6509C24.6496 46.9598 23.0785 47.1154 21.5035 47.1154H0.628174V34.5513H20.9237C22.8571 34.5513 24.7587 34.0585 26.4489 33.1196L26.7397 32.958C28.5545 31.9497 30.0224 30.4167 30.9509 28.5598V28.5598C31.6661 27.1293 32.0384 25.552 32.0384 23.9527V19.4744Z" fill="#B81111"/>
<path d="M9.97034 25.1282L4.455 20.4822C3.17728 19.4058 2.1631 18.0511 1.49027 16.5219L1.33293 16.1644C0.468452 14.1996 0.274144 12.0051 0.779957 9.91904V9.91904C1.3478 7.57715 2.76001 5.52723 4.74587 4.16222L6.5614 2.9143C7.72086 2.11733 8.98316 1.48149 10.3137 1.02421L10.5496 0.943133C12.3665 0.318722 14.2743 2.76566e-05 16.1954 2.76566e-05H20.7714L45.802 2.76566e-05C48.9561 2.76566e-05 51.5129 2.55691 51.5129 5.71098V5.71098C51.5129 8.86506 48.9561 11.4219 45.802 11.4219L20.7714 11.4219L19.0399 11.3978C15.176 11.3441 11.7144 13.7776 10.4571 17.4317V17.4317C10.1348 18.3682 9.97034 19.3517 9.97034 20.3421V25.1282Z" fill="#B81111"/>
<path d="M39.577 20.1025H48.3119C51.5979 20.1025 54.78 21.2546 57.3044 23.3583V23.3583C59.6605 25.3217 61.3093 28.0023 61.9989 30.9908L62.0705 31.3008C62.5645 33.4416 62.582 35.6648 62.1216 37.8131L61.9802 38.4729C61.3069 41.6153 59.5199 44.4082 56.9489 46.3365V46.3365C54.6436 48.0654 51.8399 49 48.9583 49H37.6924L38.6019 48.0905C46.2271 40.4652 46.6531 28.24 39.577 20.1025V20.1025Z" fill="#B81111"/>
</svg>
